<?xml version="1.0" encoding="utf-8"?>
<!-- Generator: Adobe Illustrator 18.1.0, SVG Export Plug-In . SVG Version: 6.00 Build 0)  -->
<!DOCTYPE svg PUBLIC "-//W3C//DTD SVG 1.1//EN" "http://www.w3.org/Graphics/SVG/1.1/DTD/svg11.dtd">
<svg version="1.1" id="Layer_1" xmlns="http://www.w3.org/2000/svg" xmlns:xlink="http://www.w3.org/1999/xlink" x="0px" y="0px"
	 viewBox="0 0 187 55.3" enable-background="new 0 0 187 55.3" xml:space="preserve">
<g>
	<path fill="none" d="M114.8,39.7c-0.4-0.5-0.9-0.9-1.6-1.2c-0.7-0.3-1.4-0.4-2.4-0.4c-1.7,0-3,0.5-3.9,1.5c-0.9,1-1.5,2.5-1.6,4.4
		H116c0-0.9-0.1-1.7-0.3-2.4C115.5,40.8,115.2,40.2,114.8,39.7z"/>
	<path fill="none" d="M74.5,39.8c-0.5-0.6-1-1-1.6-1.2c-0.6-0.2-1.2-0.4-1.9-0.4c-0.8,0-1.6,0.1-2.3,0.4c-0.7,0.3-1.3,0.7-1.8,1.2
		c-0.5,0.5-0.9,1.2-1.2,2.1c-0.3,0.8-0.4,1.8-0.4,2.9v1.3c0,1.2,0.1,2.2,0.4,3.1c0.3,0.9,0.7,1.6,1.1,2.1c0.5,0.6,1.1,1,1.7,1.2
		c0.7,0.3,1.4,0.4,2.2,0.4c0.8,0,1.5-0.1,2.1-0.4c0.7-0.3,1.2-0.7,1.7-1.3c0.5-0.6,0.9-1.4,1.1-2.3c0.3-0.9,0.4-2.1,0.4-3.4
		c0-1.4-0.2-2.5-0.5-3.5C75.4,41.1,75,40.3,74.5,39.8z"/>
	<path fill="none" d="M82.2,14c-0.5-0.5-1.1-0.9-1.8-1.1c-0.7-0.2-1.4-0.3-2.1-0.3c-0.8,0-1.5,0.1-2.1,0.4c-0.7,0.3-1.2,0.7-1.7,1.2
		c-0.5,0.6-0.9,1.3-1.2,2.1c-0.3,0.9-0.4,1.9-0.4,3.2c0,1.3,0.2,2.3,0.5,3.2c0.3,0.9,0.7,1.6,1.2,2.1c0.5,0.5,1,0.9,1.7,1.2
		c0.6,0.2,1.3,0.4,1.9,0.4c0.8,0,1.6-0.1,2.3-0.4c0.7-0.3,1.3-0.7,1.8-1.2s0.9-1.2,1.2-2c0.3-0.8,0.4-1.8,0.4-2.9v-0.6
		c0-1.2-0.1-2.3-0.4-3.1C83.1,15.2,82.7,14.5,82.2,14z"/>
	<path fill="none" d="M53.2,40.3c-0.5-0.6-1.1-1.1-1.8-1.5c-0.7-0.4-1.6-0.5-2.6-0.5s-1.9,0.2-2.6,0.5c-0.7,0.4-1.3,0.9-1.8,1.5
		c-0.5,0.6-0.8,1.4-1,2.3c-0.2,0.9-0.3,1.9-0.3,3c0,1.1,0.1,2.1,0.3,3c0.2,0.9,0.6,1.7,1,2.3c0.5,0.7,1,1.2,1.8,1.5
		c0.7,0.4,1.6,0.5,2.6,0.5s1.9-0.2,2.6-0.5c0.7-0.4,1.3-0.9,1.8-1.5c0.5-0.7,0.8-1.4,1-2.3s0.3-1.9,0.3-3c0-1.1-0.1-2-0.3-2.9
		C54,41.7,53.6,40.9,53.2,40.3z"/>
	<path fill="none" d="M12.5,13.7c-0.5-0.4-1.1-0.7-1.6-0.9c-0.5-0.2-1.1-0.3-1.8-0.3c-0.8,0-1.5,0.1-2.2,0.4
		c-0.7,0.3-1.2,0.7-1.7,1.3c-0.5,0.6-0.9,1.4-1.2,2.3c-0.3,0.9-0.4,2.1-0.4,3.4c0,1.4,0.2,2.5,0.5,3.5c0.3,0.9,0.7,1.7,1.2,2.3
		c0.5,0.6,1.1,1,1.7,1.2c0.6,0.2,1.2,0.4,1.9,0.4c0.7,0,1.3-0.1,1.9-0.3c0.6-0.2,1.1-0.5,1.7-0.9c0.7-0.6,1.3-1.3,1.6-2.2
		c0.4-0.9,0.6-2,0.6-3.3v-1.3c0-1.5-0.2-2.7-0.5-3.5C13.8,15,13.2,14.3,12.5,13.7z"/>
	<path fill="none" d="M34.6,14c-0.4-0.5-0.9-0.9-1.6-1.2c-0.7-0.3-1.4-0.4-2.4-0.4c-1.7,0-3,0.5-3.9,1.5c-0.9,1-1.5,2.5-1.6,4.4
		h10.7c0-0.9-0.1-1.7-0.3-2.4C35.3,15.1,35,14.5,34.6,14z"/>
	<path fill="none" d="M168.2,39.7c-0.4-0.5-0.9-0.9-1.6-1.2c-0.7-0.3-1.4-0.4-2.4-0.4c-1.7,0-3,0.5-3.9,1.5c-0.9,1-1.5,2.5-1.6,4.4
		h10.7c0-0.9-0.1-1.7-0.3-2.4C169,40.8,168.7,40.2,168.2,39.7z"/>
	<path d="M14.5,12.8c-0.9-1.1-1.8-1.9-2.8-2.3c-1-0.4-2-0.6-3-0.6c-1.3,0-2.5,0.2-3.5,0.7c-1,0.5-1.9,1.1-2.6,2
		c-0.7,0.9-1.3,1.9-1.6,3.2c-0.4,1.2-0.6,2.6-0.6,4.2c0,1.4,0.2,2.7,0.5,3.9C1.1,25,1.6,26.1,2.2,27c0.7,0.9,1.5,1.6,2.5,2.1
		c1,0.5,2.2,0.8,3.6,0.8c1.4,0,2.6-0.3,3.6-0.9c1-0.6,1.9-1.4,2.7-2.4v2.7h3.1V3.4h-3.2V12.8z M14.6,20.6c0,1.3-0.2,2.4-0.6,3.3
		c-0.4,0.9-0.9,1.6-1.6,2.2c-0.6,0.4-1.1,0.7-1.7,0.9c-0.6,0.2-1.2,0.3-1.9,0.3c-0.7,0-1.3-0.1-1.9-0.4c-0.6-0.2-1.2-0.6-1.7-1.2
		c-0.5-0.6-0.9-1.3-1.2-2.3c-0.3-0.9-0.5-2.1-0.5-3.5c0-1.3,0.1-2.5,0.4-3.4c0.3-0.9,0.7-1.7,1.2-2.3c0.5-0.6,1.1-1,1.7-1.3
		c0.7-0.3,1.4-0.4,2.2-0.4c0.7,0,1.2,0.1,1.8,0.3c0.5,0.2,1.1,0.5,1.6,0.9c0.7,0.6,1.3,1.3,1.6,2.1c0.3,0.8,0.5,2,0.5,3.5V20.6z"/>
	<path d="M37,12.5c-0.7-0.8-1.5-1.4-2.6-1.9c-1-0.5-2.3-0.7-3.7-0.7c-1.3,0-2.5,0.2-3.6,0.7c-1.1,0.4-2,1.1-2.8,1.9
		c-0.8,0.8-1.4,1.9-1.8,3.2c-0.4,1.3-0.7,2.7-0.7,4.3c0,3.1,0.8,5.5,2.3,7.2c1.5,1.7,3.7,2.6,6.6,2.6c2.4,0,4.3-0.5,5.6-1.6
		c1.3-1,2.1-2.5,2.4-4.3h-3c-0.3,1-0.8,1.8-1.5,2.4c-0.7,0.6-1.9,0.9-3.4,0.9c-0.9,0-1.7-0.2-2.4-0.5c-0.7-0.3-1.3-0.8-1.8-1.4
		c-0.5-0.6-0.8-1.3-1.1-2.1c-0.3-0.8-0.4-1.7-0.4-2.6H39V19c0-1.3-0.2-2.5-0.5-3.7C38.2,14.3,37.7,13.3,37,12.5z M25.1,18.3
		c0.2-1.9,0.7-3.4,1.6-4.4c0.9-1,2.2-1.5,3.9-1.5c0.9,0,1.7,0.1,2.4,0.4c0.7,0.3,1.2,0.7,1.6,1.2c0.4,0.5,0.7,1.1,0.9,1.9
		c0.2,0.7,0.3,1.5,0.3,2.4H25.1z"/>
	<path d="M51.9,18.5l-2.7-0.4c-0.7-0.1-1.3-0.3-1.8-0.4c-0.5-0.2-0.8-0.4-1.1-0.6c-0.3-0.2-0.4-0.5-0.5-0.8c-0.1-0.3-0.1-0.6-0.1-1
		c0-0.4,0.1-0.7,0.2-1c0.1-0.3,0.4-0.6,0.7-0.9c0.3-0.3,0.8-0.5,1.4-0.6c0.6-0.2,1.3-0.2,2.2-0.2c0.8,0,1.4,0.1,1.9,0.2
		c0.5,0.1,1,0.3,1.3,0.6s0.7,0.6,0.9,1c0.2,0.4,0.4,0.8,0.6,1.3l2.9-0.5c-0.2-0.7-0.4-1.4-0.7-2c-0.3-0.6-0.8-1.2-1.3-1.6
		c-0.6-0.5-1.3-0.8-2.2-1.1c-0.9-0.3-2-0.4-3.4-0.4c-1.1,0-2,0.1-3,0.4c-0.9,0.3-1.7,0.6-2.4,1.1c-0.7,0.5-1.2,1-1.6,1.7
		c-0.4,0.7-0.6,1.4-0.6,2.3c0,0.9,0.1,1.6,0.4,2.2c0.3,0.6,0.7,1.1,1.2,1.6c0.6,0.4,1.2,0.8,2,1c0.8,0.3,1.7,0.5,2.8,0.7l2.4,0.4
		c0.7,0.1,1.3,0.3,1.7,0.5c0.4,0.2,0.8,0.4,1,0.7c0.2,0.3,0.4,0.5,0.5,0.9c0.1,0.3,0.1,0.7,0.1,1c0,0.9-0.3,1.6-1,2.2
		c-0.7,0.5-1.8,0.8-3.4,0.8c-1.5,0-2.7-0.3-3.6-0.8c-0.9-0.5-1.4-1.4-1.6-2.7h-3c0.1,1.1,0.3,2.1,0.8,2.8s1.1,1.4,1.8,1.9
		c0.7,0.5,1.6,0.8,2.6,1c1,0.2,2,0.3,3.2,0.3c1.3,0,2.4-0.1,3.3-0.4c0.9-0.3,1.7-0.7,2.4-1.2c0.6-0.5,1.1-1.1,1.4-1.7
		c0.3-0.7,0.5-1.4,0.5-2.2c0-1.7-0.5-3-1.4-3.9C55.7,19.5,54.1,18.9,51.9,18.5z"/>
	<rect x="62" y="3.4" width="3.4" height="3.7"/>
	<path d="M85.3,33.8c0.6-0.9,1-2,1.3-3.3c0.2-1.3,0.3-2.7,0.3-4.4V10.5h-3.1v2.4C82.9,11.7,82,11,81,10.5c-1-0.4-2.1-0.6-3.1-0.6
		c-1.3,0-2.4,0.2-3.5,0.7c-1,0.5-1.9,1.1-2.6,1.9c-0.7,0.8-1.3,1.8-1.7,3s-0.6,2.5-0.6,3.9c0,1.3,0.2,2.5,0.5,3.7
		c0.3,1.1,0.8,2.1,1.5,3c0.7,0.9,1.5,1.5,2.5,2c1,0.5,2.2,0.7,3.5,0.7c1.4,0,2.6-0.3,3.6-0.8c1-0.6,1.9-1.3,2.6-2.4v2
		c0,2.1-0.4,3.7-1.1,4.8c-0.8,1.1-2.1,1.6-4.1,1.6c-1.6,0-2.8-0.2-3.6-0.7c-0.8-0.5-1.3-1.3-1.5-2.4h-3.1c0.2,2,1.1,3.5,2.5,4.4
		c1.4,0.9,3.3,1.3,5.8,1.3c1.7,0,3.1-0.2,4.2-0.7C83.8,35.4,84.7,34.7,85.3,33.8z M83.8,19.8c0,1.1-0.1,2-0.4,2.9
		c-0.3,0.8-0.7,1.5-1.2,2s-1.1,0.9-1.8,1.2c-0.7,0.3-1.4,0.4-2.3,0.4c-0.6,0-1.3-0.1-1.9-0.4c-0.6-0.2-1.2-0.6-1.7-1.2
		c-0.5-0.5-0.9-1.2-1.2-2.1c-0.3-0.9-0.5-1.9-0.5-3.2c0-1.2,0.1-2.3,0.4-3.2c0.3-0.9,0.7-1.6,1.2-2.1c0.5-0.6,1.1-1,1.7-1.2
		c0.7-0.3,1.4-0.4,2.1-0.4c0.7,0,1.4,0.1,2.1,0.3c0.7,0.2,1.2,0.6,1.8,1.1c0.5,0.5,0.9,1.2,1.2,2.1c0.3,0.8,0.4,1.9,0.4,3.1V19.8z"
		/>
	<path d="M104.6,17.4v11.8h3.2V16.8c0-2.2-0.5-3.9-1.5-5.1c-1-1.2-2.6-1.7-4.7-1.7c-1.2,0-2.4,0.3-3.5,0.8c-1.1,0.5-2.1,1.4-3,2.6
		v-2.9h-3.1v18.7h3.2V18.1c0-0.9,0.2-1.7,0.5-2.3c0.3-0.6,0.8-1.2,1.4-1.7c0.6-0.5,1.2-0.9,1.9-1.2c0.7-0.2,1.4-0.4,2.1-0.4
		c1.3,0,2.3,0.4,2.9,1.1C104.2,14.4,104.6,15.6,104.6,17.4z"/>
	<path d="M55.5,38.3c-0.8-0.9-1.7-1.5-2.8-2c-1.1-0.5-2.4-0.7-3.8-0.7c-1.4,0-2.6,0.2-3.7,0.7c-1.1,0.5-2.1,1.1-2.9,2
		c-0.8,0.9-1.4,1.9-1.8,3.2c-0.4,1.2-0.7,2.6-0.7,4.1c0,1.5,0.2,2.9,0.6,4.1c0.4,1.2,1,2.3,1.8,3.1c0.8,0.8,1.7,1.5,2.8,2
		c1.1,0.5,2.4,0.7,3.8,0.7c1.4,0,2.7-0.2,3.8-0.7c1.1-0.5,2.1-1.1,2.9-2c0.8-0.9,1.4-1.9,1.8-3.2c0.4-1.2,0.6-2.6,0.6-4.2
		c0-1.5-0.2-2.9-0.6-4.1C56.9,40.2,56.3,39.1,55.5,38.3z M54.2,48.5c-0.2,0.9-0.6,1.7-1,2.3c-0.5,0.7-1.1,1.2-1.8,1.5
		c-0.7,0.4-1.6,0.5-2.6,0.5s-1.9-0.2-2.6-0.5c-0.7-0.4-1.3-0.9-1.8-1.5c-0.5-0.7-0.8-1.4-1-2.3c-0.2-0.9-0.3-1.9-0.3-3
		c0-1.1,0.1-2.1,0.3-3c0.2-0.9,0.6-1.7,1-2.3c0.5-0.6,1.1-1.1,1.8-1.5c0.7-0.4,1.6-0.5,2.6-0.5s1.9,0.2,2.6,0.5
		c0.7,0.4,1.3,0.9,1.8,1.5c0.5,0.6,0.8,1.4,1,2.3c0.2,0.9,0.3,1.9,0.3,2.9C54.5,46.6,54.4,47.6,54.2,48.5z"/>
	<path d="M77.6,38.4c-0.7-0.9-1.5-1.5-2.5-2c-1-0.5-2.2-0.7-3.5-0.7c-1.4,0-2.6,0.3-3.6,0.8c-1,0.6-1.9,1.3-2.7,2.4v-9.7h0V10.5
		h-3.2v18.7h0v25.7h3.1v-2.4c0.8,1.1,1.7,1.9,2.8,2.3c1,0.4,2.1,0.7,3.2,0.7c1.3,0,2.4-0.2,3.5-0.7c1-0.5,1.9-1.1,2.6-2
		c0.7-0.9,1.3-1.9,1.7-3.2c0.4-1.2,0.6-2.6,0.6-4.2c0-1.4-0.2-2.8-0.5-4C78.7,40.3,78.2,39.2,77.6,38.4z M75.7,48.9
		c-0.3,0.9-0.7,1.7-1.1,2.3c-0.5,0.6-1.1,1-1.7,1.3c-0.7,0.3-1.4,0.4-2.1,0.4c-0.8,0-1.5-0.1-2.2-0.4c-0.7-0.3-1.3-0.7-1.7-1.2
		c-0.5-0.6-0.9-1.3-1.1-2.1c-0.3-0.9-0.4-1.9-0.4-3.1v-1.3c0-1.1,0.1-2,0.4-2.9c0.3-0.8,0.7-1.5,1.2-2.1c0.5-0.5,1.1-1,1.8-1.2
		c0.7-0.3,1.5-0.4,2.3-0.4c0.6,0,1.3,0.1,1.9,0.4c0.6,0.2,1.2,0.6,1.6,1.2c0.5,0.6,0.9,1.3,1.2,2.2c0.3,0.9,0.5,2.1,0.5,3.5
		C76.2,46.8,76,48,75.7,48.9z"/>
	<path d="M92.5,44.2l-2.7-0.4c-0.7-0.1-1.3-0.3-1.8-0.4c-0.5-0.2-0.8-0.4-1.1-0.6c-0.3-0.2-0.4-0.5-0.5-0.8c-0.1-0.3-0.1-0.6-0.1-1
		c0-0.4,0.1-0.7,0.2-1c0.1-0.3,0.4-0.6,0.7-0.9c0.3-0.3,0.8-0.5,1.4-0.6c0.6-0.2,1.3-0.2,2.2-0.2c0.8,0,1.4,0.1,1.9,0.2
		c0.5,0.1,1,0.3,1.3,0.6c0.4,0.3,0.7,0.6,0.9,1c0.2,0.4,0.4,0.8,0.6,1.3l2.9-0.5c-0.2-0.7-0.4-1.4-0.7-2c-0.3-0.6-0.8-1.2-1.3-1.6
		c-0.6-0.5-1.3-0.8-2.2-1.1c-0.9-0.3-2-0.4-3.4-0.4c-1.1,0-2,0.1-3,0.4c-0.9,0.3-1.7,0.6-2.4,1.1c-0.7,0.5-1.2,1-1.6,1.7
		c-0.4,0.7-0.6,1.4-0.6,2.3c0,0.9,0.1,1.6,0.4,2.2c0.3,0.6,0.7,1.1,1.2,1.6c0.6,0.4,1.2,0.8,2,1c0.8,0.3,1.7,0.5,2.8,0.7l2.4,0.4
		c0.7,0.1,1.3,0.3,1.7,0.5c0.4,0.2,0.8,0.4,1,0.7c0.2,0.3,0.4,0.5,0.5,0.9c0.1,0.3,0.1,0.7,0.1,1c0,0.9-0.3,1.6-1,2.2
		C93.8,52.7,92.6,53,91,53c-1.5,0-2.7-0.3-3.6-0.8c-0.9-0.5-1.4-1.4-1.6-2.7h-3c0.1,1.1,0.3,2.1,0.8,2.8s1.1,1.4,1.8,1.9
		c0.7,0.5,1.6,0.8,2.6,1c1,0.2,2,0.3,3.2,0.3c1.3,0,2.4-0.1,3.3-0.4c0.9-0.3,1.7-0.7,2.4-1.2c0.6-0.5,1.1-1.1,1.4-1.7
		c0.3-0.7,0.5-1.4,0.5-2.2c0-1.7-0.5-3-1.4-3.9C96.3,45.2,94.7,44.6,92.5,44.2z"/>
	<path d="M117.2,38.2c-0.7-0.8-1.5-1.4-2.6-1.9c-1-0.5-2.3-0.7-3.7-0.7c-1.3,0-2.5,0.2-3.6,0.7c-1.1,0.4-2,1.1-2.8,1.9
		c-0.8,0.8-1.4,1.9-1.8,3.2c-0.4,1.3-0.7,2.7-0.7,4.3c0,3.1,0.8,5.5,2.3,7.2c1.5,1.7,3.7,2.6,6.6,2.6c2.4,0,4.3-0.5,5.6-1.6
		c1.3-1,2.1-2.5,2.4-4.3h-3c-0.3,1-0.8,1.8-1.5,2.4c-0.7,0.6-1.9,0.9-3.4,0.9c-0.9,0-1.7-0.2-2.4-0.5c-0.7-0.3-1.3-0.8-1.8-1.4
		c-0.5-0.6-0.8-1.3-1.1-2.1c-0.3-0.8-0.4-1.7-0.4-2.6h13.9v-1.6c0-1.3-0.2-2.5-0.5-3.7C118.3,40,117.8,39,117.2,38.2z M105.3,44
		c0.2-1.9,0.7-3.4,1.6-4.4c0.9-1,2.2-1.5,3.9-1.5c0.9,0,1.7,0.1,2.4,0.4c0.7,0.3,1.2,0.7,1.6,1.2c0.4,0.5,0.7,1.1,0.9,1.9
		c0.2,0.7,0.3,1.5,0.3,2.4H105.3z"/>
	<path d="M128.9,36.7c-0.9,0.6-1.8,1.4-2.5,2.4v-2.9h-3.1v18.7h3.2V43.8c0-0.8,0.2-1.5,0.5-2.1c0.3-0.6,0.7-1.1,1.2-1.6
		c0.5-0.5,1.1-0.8,1.7-1c0.6-0.2,1.2-0.3,1.8-0.3c0.3,0,0.6,0,0.8,0.1c0.2,0,0.5,0.1,0.7,0.1l0.4-2.9c-0.5-0.1-1-0.1-1.7-0.1
		C130.8,35.9,129.8,36.1,128.9,36.7z"/>
	<polygon points="144.7,51.4 139.2,36.2 135.5,36.2 143,54.9 146.4,54.9 153.9,36.2 150.4,36.2 	"/>
	<path d="M170.6,38.2c-0.7-0.8-1.5-1.4-2.6-1.9c-1-0.5-2.3-0.7-3.7-0.7c-1.3,0-2.5,0.2-3.6,0.7c-1.1,0.4-2,1.1-2.8,1.9
		c-0.8,0.8-1.4,1.9-1.8,3.2c-0.4,1.3-0.7,2.7-0.7,4.3c0,3.1,0.8,5.5,2.3,7.2c1.5,1.7,3.7,2.6,6.6,2.6c2.4,0,4.3-0.5,5.6-1.6
		c1.3-1,2.1-2.5,2.4-4.3h-3c-0.3,1-0.8,1.8-1.5,2.4c-0.7,0.6-1.9,0.9-3.4,0.9c-0.9,0-1.7-0.2-2.4-0.5c-0.7-0.3-1.3-0.8-1.8-1.4
		c-0.5-0.6-0.8-1.3-1.1-2.1c-0.3-0.8-0.4-1.7-0.4-2.6h13.9v-1.6c0-1.3-0.2-2.5-0.5-3.7C171.8,40,171.3,39,170.6,38.2z M158.8,44
		c0.2-1.9,0.7-3.4,1.6-4.4c0.9-1,2.2-1.5,3.9-1.5c0.9,0,1.7,0.1,2.4,0.4c0.7,0.3,1.2,0.7,1.6,1.2c0.4,0.5,0.7,1.1,0.9,1.9
		c0.2,0.7,0.3,1.5,0.3,2.4H158.8z"/>
	<path d="M185.3,35.9c-1.1,0-2.1,0.3-3,0.8c-0.9,0.6-1.8,1.4-2.5,2.4v-2.9h-3.1v18.7h3.2V43.8c0-0.8,0.2-1.5,0.5-2.1
		c0.3-0.6,0.7-1.1,1.2-1.6c0.5-0.5,1.1-0.8,1.7-1c0.6-0.2,1.2-0.3,1.8-0.3c0.3,0,0.6,0,0.8,0.1c0.2,0,0.5,0.1,0.7,0.1L187,36
		C186.5,35.9,186,35.9,185.3,35.9z"/>
	<path d="M31.5,2.5h-0.8V1.8h0.8V0.4h0.9v1.4h1.4v0.7h-1.4v3c0,0.3,0.1,0.5,0.2,0.6c0.1,0.2,0.3,0.2,0.5,0.2c0.1,0,0.3,0,0.4,0
		c0.1,0,0.2,0,0.3-0.1L33.9,7c-0.1,0-0.3,0.1-0.4,0.1c-0.2,0-0.3,0-0.6,0c-0.3,0-0.5,0-0.7-0.1c-0.2-0.1-0.3-0.2-0.4-0.4
		c-0.1-0.2-0.2-0.4-0.2-0.6s-0.1-0.5-0.1-0.7V2.5z"/>
	<path d="M34.7-0.2h0.9v2.8c0.3-0.3,0.5-0.6,0.8-0.7c0.3-0.1,0.6-0.2,1-0.2c0.6,0,1,0.2,1.3,0.5c0.3,0.3,0.4,0.8,0.4,1.4V7h-0.9V3.7
		c0-0.5-0.1-0.8-0.3-1c-0.2-0.2-0.4-0.3-0.8-0.3c-0.2,0-0.4,0-0.6,0.1c-0.2,0.1-0.4,0.2-0.5,0.3c-0.2,0.1-0.3,0.3-0.4,0.5
		c-0.1,0.2-0.1,0.4-0.1,0.6V7h-0.9V-0.2z"/>
	<path d="M44.9,5.6c-0.1,0.5-0.3,0.9-0.7,1.2c-0.4,0.3-0.9,0.4-1.5,0.4c-0.8,0-1.4-0.2-1.8-0.7s-0.6-1.1-0.6-2
		c0-0.4,0.1-0.8,0.2-1.2c0.1-0.3,0.3-0.6,0.5-0.9c0.2-0.2,0.5-0.4,0.8-0.5s0.6-0.2,1-0.2c0.4,0,0.7,0.1,1,0.2
		C44,2,44.2,2.1,44.4,2.4c0.2,0.2,0.3,0.5,0.4,0.8s0.1,0.6,0.1,1v0.4h-3.9c0,0.3,0,0.5,0.1,0.7c0.1,0.2,0.2,0.4,0.3,0.6
		c0.1,0.2,0.3,0.3,0.5,0.4s0.4,0.1,0.7,0.1c0.4,0,0.8-0.1,1-0.2C43.8,6.1,44,5.8,44,5.6H44.9z M44.1,4c0-0.2,0-0.5-0.1-0.7
		c-0.1-0.2-0.1-0.4-0.3-0.5c-0.1-0.1-0.3-0.3-0.4-0.3c-0.2-0.1-0.4-0.1-0.7-0.1c-0.5,0-0.8,0.1-1.1,0.4C41.3,3,41.2,3.4,41.1,4H44.1
		z"/>
</g>
</svg>
