<?xml version="1.0" encoding="utf-8"?>
<!-- Generator: Adobe Illustrator 18.1.0, SVG Export Plug-In . SVG Version: 6.00 Build 0)  -->
<!DOCTYPE svg PUBLIC "-//W3C//DTD SVG 1.1//EN" "http://www.w3.org/Graphics/SVG/1.1/DTD/svg11.dtd">
<svg version="1.1" id="Layer_1" xmlns="http://www.w3.org/2000/svg" xmlns:xlink="http://www.w3.org/1999/xlink" x="0px" y="0px"
	 viewBox="0 0 186.7 67.3" enable-background="new 0 0 186.7 67.3" xml:space="preserve">
<path fill="none" d="M114.5,39.7c-0.4-0.5-0.9-0.9-1.6-1.2c-0.7-0.3-1.4-0.4-2.4-0.4c-1.7,0-3,0.5-3.9,1.5c-0.9,1-1.5,2.5-1.6,4.4
	h10.7c0-0.9-0.1-1.7-0.3-2.4C115.2,40.8,114.9,40.2,114.5,39.7z"/>
<path fill="none" d="M74.2,39.8c-0.5-0.6-1-1-1.6-1.2c-0.6-0.2-1.2-0.4-1.9-0.4c-0.8,0-1.6,0.1-2.3,0.4c-0.7,0.3-1.3,0.7-1.8,1.2
	c-0.5,0.5-0.9,1.2-1.2,2.1c-0.3,0.8-0.4,1.8-0.4,2.9v1.3c0,1.2,0.1,2.2,0.4,3.1c0.3,0.9,0.7,1.6,1.1,2.1c0.5,0.6,1.1,1,1.7,1.2
	c0.7,0.3,1.4,0.4,2.2,0.4c0.8,0,1.5-0.1,2.1-0.4c0.7-0.3,1.2-0.7,1.7-1.3c0.5-0.6,0.9-1.4,1.1-2.3c0.3-0.9,0.4-2.1,0.4-3.4
	c0-1.4-0.2-2.5-0.5-3.5C75.1,41.1,74.7,40.3,74.2,39.8z"/>
<path fill="none" d="M81.9,14c-0.5-0.5-1.1-0.9-1.8-1.1c-0.7-0.2-1.4-0.3-2.1-0.3c-0.8,0-1.5,0.1-2.1,0.4c-0.7,0.3-1.2,0.7-1.7,1.2
	c-0.5,0.6-0.9,1.3-1.2,2.1c-0.3,0.9-0.4,1.9-0.4,3.2c0,1.3,0.2,2.3,0.5,3.2c0.3,0.9,0.7,1.6,1.2,2.1c0.5,0.5,1,0.9,1.7,1.2
	c0.6,0.2,1.3,0.4,1.9,0.4c0.8,0,1.6-0.1,2.3-0.4c0.7-0.3,1.3-0.7,1.8-1.2s0.9-1.2,1.2-2c0.3-0.8,0.4-1.8,0.4-2.9v-0.6
	c0-1.2-0.1-2.3-0.4-3.1C82.8,15.2,82.4,14.5,81.9,14z"/>
<path fill="none" d="M52.9,40.3c-0.5-0.6-1.1-1.1-1.8-1.5c-0.7-0.4-1.6-0.5-2.6-0.5c-1,0-1.9,0.2-2.6,0.5c-0.7,0.4-1.3,0.9-1.8,1.5
	c-0.5,0.6-0.8,1.4-1,2.3c-0.2,0.9-0.3,1.9-0.3,3c0,1.1,0.1,2.1,0.3,3c0.2,0.9,0.6,1.7,1,2.3c0.5,0.7,1,1.2,1.8,1.5
	c0.7,0.4,1.6,0.5,2.6,0.5c1,0,1.9-0.2,2.6-0.5c0.7-0.4,1.3-0.9,1.8-1.5c0.5-0.7,0.8-1.4,1-2.3s0.3-1.9,0.3-3c0-1.1-0.1-2-0.3-2.9
	C53.7,41.7,53.4,40.9,52.9,40.3z"/>
<path fill="none" d="M12.2,13.7c-0.5-0.4-1.1-0.7-1.6-0.9c-0.5-0.2-1.1-0.3-1.8-0.3c-0.8,0-1.5,0.1-2.2,0.4
	c-0.7,0.3-1.2,0.7-1.7,1.3c-0.5,0.6-0.9,1.4-1.2,2.3c-0.3,0.9-0.4,2.1-0.4,3.4c0,1.4,0.2,2.5,0.5,3.5c0.3,0.9,0.7,1.7,1.2,2.3
	c0.5,0.6,1.1,1,1.7,1.2c0.6,0.2,1.2,0.4,1.9,0.4c0.7,0,1.3-0.1,1.9-0.3c0.6-0.2,1.1-0.5,1.7-0.9c0.7-0.6,1.3-1.3,1.6-2.2
	c0.4-0.9,0.6-2,0.6-3.3v-1.3c0-1.5-0.2-2.7-0.5-3.5C13.5,15,12.9,14.3,12.2,13.7z"/>
<path fill="none" d="M34.3,14c-0.4-0.5-0.9-0.9-1.6-1.2c-0.7-0.3-1.4-0.4-2.4-0.4c-1.7,0-3,0.5-3.9,1.5c-0.9,1-1.5,2.5-1.6,4.4h10.7
	c0-0.9-0.1-1.7-0.3-2.4C35.1,15.1,34.8,14.5,34.3,14z"/>
<path fill="none" d="M167.9,39.7c-0.4-0.5-0.9-0.9-1.6-1.2c-0.7-0.3-1.4-0.4-2.4-0.4c-1.7,0-3,0.5-3.9,1.5c-0.9,1-1.5,2.5-1.6,4.4
	h10.7c0-0.9-0.1-1.7-0.3-2.4C168.7,40.8,168.4,40.2,167.9,39.7z"/>
<path d="M14.2,12.8c-0.9-1.1-1.8-1.9-2.8-2.3c-1-0.4-2-0.6-3-0.6c-1.3,0-2.5,0.2-3.5,0.7c-1,0.5-1.9,1.1-2.6,2
	c-0.7,0.9-1.3,1.9-1.6,3.2C0.2,17,0,18.4,0,19.9c0,1.4,0.2,2.7,0.5,3.9C0.8,25,1.3,26.1,1.9,27c0.7,0.9,1.5,1.6,2.5,2.1
	c1,0.5,2.2,0.8,3.6,0.8c1.4,0,2.6-0.3,3.6-0.9c1-0.6,1.9-1.4,2.7-2.4v2.7h3.1V3.4h-3.2V12.8z M14.3,20.6c0,1.3-0.2,2.4-0.6,3.3
	c-0.4,0.9-0.9,1.6-1.6,2.2c-0.6,0.4-1.1,0.7-1.7,0.9c-0.6,0.2-1.2,0.3-1.9,0.3c-0.7,0-1.3-0.1-1.9-0.4c-0.6-0.2-1.2-0.6-1.7-1.2
	c-0.5-0.6-0.9-1.3-1.2-2.3c-0.3-0.9-0.5-2.1-0.5-3.5c0-1.3,0.1-2.5,0.4-3.4c0.3-0.9,0.7-1.7,1.2-2.3c0.5-0.6,1.1-1,1.7-1.3
	c0.7-0.3,1.4-0.4,2.2-0.4c0.7,0,1.2,0.1,1.8,0.3c0.5,0.2,1.1,0.5,1.6,0.9c0.7,0.6,1.3,1.3,1.6,2.1c0.3,0.8,0.5,2,0.5,3.5V20.6z"/>
<path d="M36.7,12.5c-0.7-0.8-1.5-1.4-2.6-1.9c-1-0.5-2.3-0.7-3.7-0.7c-1.3,0-2.5,0.2-3.6,0.7c-1.1,0.4-2,1.1-2.8,1.9
	c-0.8,0.8-1.4,1.9-1.8,3.2c-0.4,1.3-0.7,2.7-0.7,4.3c0,3.1,0.8,5.5,2.3,7.2c1.5,1.7,3.7,2.6,6.6,2.6c2.4,0,4.3-0.5,5.6-1.6
	c1.3-1,2.1-2.5,2.4-4.3h-3c-0.3,1-0.8,1.8-1.5,2.4c-0.7,0.6-1.9,0.9-3.4,0.9c-0.9,0-1.7-0.2-2.4-0.5c-0.7-0.3-1.3-0.8-1.8-1.4
	c-0.5-0.6-0.8-1.3-1.1-2.1c-0.3-0.8-0.4-1.7-0.4-2.6h13.9V19c0-1.3-0.2-2.5-0.5-3.7C37.9,14.3,37.4,13.3,36.7,12.5z M24.9,18.3
	c0.2-1.9,0.7-3.4,1.6-4.4c0.9-1,2.2-1.5,3.9-1.5c0.9,0,1.7,0.1,2.4,0.4c0.7,0.3,1.2,0.7,1.6,1.2c0.4,0.5,0.7,1.1,0.9,1.9
	c0.2,0.7,0.3,1.5,0.3,2.4H24.9z"/>
<path d="M51.6,18.5l-2.7-0.4c-0.7-0.1-1.3-0.3-1.8-0.4c-0.5-0.2-0.8-0.4-1.1-0.6c-0.3-0.2-0.4-0.5-0.5-0.8c-0.1-0.3-0.1-0.6-0.1-1
	c0-0.4,0.1-0.7,0.2-1c0.1-0.3,0.4-0.6,0.7-0.9c0.3-0.3,0.8-0.5,1.4-0.6c0.6-0.2,1.3-0.2,2.2-0.2c0.8,0,1.4,0.1,1.9,0.2
	c0.5,0.1,1,0.3,1.3,0.6s0.7,0.6,0.9,1c0.2,0.4,0.4,0.8,0.6,1.3l2.9-0.5c-0.2-0.7-0.4-1.4-0.7-2c-0.3-0.6-0.8-1.2-1.3-1.6
	c-0.6-0.5-1.3-0.8-2.2-1.1c-0.9-0.3-2-0.4-3.4-0.4c-1.1,0-2,0.1-3,0.4s-1.7,0.6-2.4,1.1c-0.7,0.5-1.2,1-1.6,1.7
	c-0.4,0.7-0.6,1.4-0.6,2.3c0,0.9,0.1,1.6,0.4,2.2c0.3,0.6,0.7,1.1,1.2,1.6c0.6,0.4,1.2,0.8,2,1c0.8,0.3,1.7,0.5,2.8,0.7l2.4,0.4
	c0.7,0.1,1.3,0.3,1.7,0.5c0.4,0.2,0.8,0.4,1,0.7c0.2,0.3,0.4,0.5,0.5,0.9c0.1,0.3,0.1,0.7,0.1,1c0,0.9-0.3,1.6-1,2.2
	c-0.7,0.5-1.8,0.8-3.4,0.8c-1.5,0-2.7-0.3-3.6-0.8c-0.9-0.5-1.4-1.4-1.6-2.7h-3c0.1,1.1,0.3,2.1,0.8,2.8c0.5,0.8,1.1,1.4,1.8,1.9
	c0.7,0.5,1.6,0.8,2.6,1c1,0.2,2,0.3,3.2,0.3c1.3,0,2.4-0.1,3.3-0.4c0.9-0.3,1.7-0.7,2.4-1.2c0.6-0.5,1.1-1.1,1.4-1.7
	c0.3-0.7,0.5-1.4,0.5-2.2c0-1.7-0.5-3-1.4-3.9C55.4,19.5,53.8,18.9,51.6,18.5z"/>
<rect x="61.7" y="3.4" width="3.4" height="3.7"/>
<path d="M85,33.8c0.6-0.9,1-2,1.3-3.3c0.2-1.3,0.3-2.7,0.3-4.4V10.5h-3.1v2.4c-0.8-1.1-1.8-1.9-2.8-2.3c-1-0.4-2.1-0.6-3.1-0.6
	c-1.3,0-2.4,0.2-3.5,0.7c-1,0.5-1.9,1.1-2.6,1.9c-0.7,0.8-1.3,1.8-1.7,3s-0.6,2.5-0.6,3.9c0,1.3,0.2,2.5,0.5,3.7
	c0.3,1.1,0.8,2.1,1.5,3c0.7,0.9,1.5,1.5,2.5,2c1,0.5,2.2,0.7,3.5,0.7c1.4,0,2.6-0.3,3.6-0.8c1-0.6,1.9-1.3,2.6-2.4v2
	c0,2.1-0.4,3.7-1.1,4.8c-0.8,1.1-2.1,1.6-4.1,1.6c-1.6,0-2.8-0.2-3.6-0.7c-0.8-0.5-1.3-1.3-1.5-2.4H70c0.2,2,1.1,3.5,2.5,4.4
	c1.4,0.9,3.3,1.3,5.8,1.3c1.7,0,3.1-0.2,4.2-0.7C83.5,35.4,84.4,34.7,85,33.8z M83.5,19.8c0,1.1-0.1,2-0.4,2.9
	c-0.3,0.8-0.7,1.5-1.2,2s-1.1,0.9-1.8,1.2c-0.7,0.3-1.4,0.4-2.3,0.4c-0.6,0-1.3-0.1-1.9-0.4c-0.6-0.2-1.2-0.6-1.7-1.2
	c-0.5-0.5-0.9-1.2-1.2-2.1c-0.3-0.9-0.5-1.9-0.5-3.2c0-1.2,0.1-2.3,0.4-3.2c0.3-0.9,0.7-1.6,1.2-2.1c0.5-0.6,1.1-1,1.7-1.2
	c0.7-0.3,1.4-0.4,2.1-0.4c0.7,0,1.4,0.1,2.1,0.3c0.7,0.2,1.2,0.6,1.8,1.1c0.5,0.5,0.9,1.2,1.2,2.1c0.3,0.8,0.4,1.9,0.4,3.1V19.8z"/>
<path d="M104.3,17.4v11.8h3.2V16.8c0-2.2-0.5-3.9-1.5-5.1c-1-1.2-2.6-1.7-4.7-1.7c-1.2,0-2.4,0.3-3.5,0.8c-1.1,0.5-2.1,1.4-3,2.6
	v-2.9h-3.1v18.7h3.2V18.1c0-0.9,0.2-1.7,0.5-2.3c0.3-0.6,0.8-1.2,1.4-1.7c0.6-0.5,1.2-0.9,1.9-1.2c0.7-0.2,1.4-0.4,2.1-0.4
	c1.3,0,2.3,0.4,2.9,1.1C103.9,14.4,104.3,15.6,104.3,17.4z"/>
<path d="M55.2,38.3c-0.8-0.9-1.7-1.5-2.8-2c-1.1-0.5-2.4-0.7-3.8-0.7c-1.4,0-2.6,0.2-3.7,0.7c-1.1,0.5-2.1,1.1-2.9,2
	c-0.8,0.9-1.4,1.9-1.8,3.2c-0.4,1.2-0.7,2.6-0.7,4.1c0,1.5,0.2,2.9,0.6,4.1c0.4,1.2,1,2.3,1.8,3.1c0.8,0.8,1.7,1.5,2.8,2
	c1.1,0.5,2.4,0.7,3.8,0.7c1.4,0,2.7-0.2,3.8-0.7c1.1-0.5,2.1-1.1,2.9-2c0.8-0.9,1.4-1.9,1.8-3.2c0.4-1.2,0.6-2.6,0.6-4.2
	c0-1.5-0.2-2.9-0.6-4.1C56.6,40.2,56,39.1,55.2,38.3z M53.9,48.5c-0.2,0.9-0.6,1.7-1,2.3c-0.5,0.7-1.1,1.2-1.8,1.5
	c-0.7,0.4-1.6,0.5-2.6,0.5c-1,0-1.9-0.2-2.6-0.5c-0.7-0.4-1.3-0.9-1.8-1.5c-0.5-0.7-0.8-1.4-1-2.3c-0.2-0.9-0.3-1.9-0.3-3
	c0-1.1,0.1-2.1,0.3-3c0.2-0.9,0.6-1.7,1-2.3c0.5-0.6,1.1-1.1,1.8-1.5c0.7-0.4,1.6-0.5,2.6-0.5c1,0,1.9,0.2,2.6,0.5
	c0.7,0.4,1.3,0.9,1.8,1.5c0.5,0.6,0.8,1.4,1,2.3c0.2,0.9,0.3,1.9,0.3,2.9C54.2,46.6,54.1,47.6,53.9,48.5z"/>
<path d="M77.3,38.4c-0.7-0.9-1.5-1.5-2.5-2c-1-0.5-2.2-0.7-3.5-0.7c-1.4,0-2.6,0.3-3.6,0.8c-1,0.6-1.9,1.3-2.7,2.4v-9.7h0V10.5h-3.2
	v18.7h0v25.7H65v-2.4c0.8,1.1,1.7,1.9,2.8,2.3c1,0.4,2.1,0.7,3.2,0.7c1.3,0,2.4-0.2,3.5-0.7c1-0.5,1.9-1.1,2.6-2
	c0.7-0.9,1.3-1.9,1.7-3.2c0.4-1.2,0.6-2.6,0.6-4.2c0-1.4-0.2-2.8-0.5-4C78.4,40.3,77.9,39.2,77.3,38.4z M75.4,48.9
	c-0.3,0.9-0.7,1.7-1.1,2.3c-0.5,0.6-1.1,1-1.7,1.3c-0.7,0.3-1.4,0.4-2.1,0.4c-0.8,0-1.5-0.1-2.2-0.4c-0.7-0.3-1.3-0.7-1.7-1.2
	c-0.5-0.6-0.9-1.3-1.1-2.1c-0.3-0.9-0.4-1.9-0.4-3.1v-1.3c0-1.1,0.1-2,0.4-2.9c0.3-0.8,0.7-1.5,1.2-2.1c0.5-0.5,1.1-1,1.8-1.2
	c0.7-0.3,1.5-0.4,2.3-0.4c0.6,0,1.3,0.1,1.9,0.4c0.6,0.2,1.2,0.6,1.6,1.2c0.5,0.6,0.9,1.3,1.2,2.2c0.3,0.9,0.5,2.1,0.5,3.5
	C75.9,46.8,75.7,48,75.4,48.9z"/>
<path d="M92.2,44.2l-2.7-0.4c-0.7-0.1-1.3-0.3-1.8-0.4c-0.5-0.2-0.8-0.4-1.1-0.6c-0.3-0.2-0.4-0.5-0.5-0.8c-0.1-0.3-0.1-0.6-0.1-1
	c0-0.4,0.1-0.7,0.2-1c0.1-0.3,0.4-0.6,0.7-0.9c0.3-0.3,0.8-0.5,1.4-0.6c0.6-0.2,1.3-0.2,2.2-0.2c0.8,0,1.4,0.1,1.9,0.2
	c0.5,0.1,1,0.3,1.3,0.6c0.4,0.3,0.7,0.6,0.9,1c0.2,0.4,0.4,0.8,0.6,1.3l2.9-0.5c-0.2-0.7-0.4-1.4-0.7-2c-0.3-0.6-0.8-1.2-1.3-1.6
	c-0.6-0.5-1.3-0.8-2.2-1.1c-0.9-0.3-2-0.4-3.4-0.4c-1.1,0-2,0.1-3,0.4c-0.9,0.3-1.7,0.6-2.4,1.1c-0.7,0.5-1.2,1-1.6,1.7
	c-0.4,0.7-0.6,1.4-0.6,2.3c0,0.9,0.1,1.6,0.4,2.2c0.3,0.6,0.7,1.1,1.2,1.6c0.6,0.4,1.2,0.8,2,1c0.8,0.3,1.7,0.5,2.8,0.7l2.4,0.4
	c0.7,0.1,1.3,0.3,1.7,0.5c0.4,0.2,0.8,0.4,1,0.7c0.2,0.3,0.4,0.5,0.5,0.9c0.1,0.3,0.1,0.7,0.1,1c0,0.9-0.3,1.6-1,2.2
	c-0.7,0.5-1.8,0.8-3.4,0.8c-1.5,0-2.7-0.3-3.6-0.8c-0.9-0.5-1.4-1.4-1.6-2.7h-3c0.1,1.1,0.3,2.1,0.8,2.8c0.5,0.8,1.1,1.4,1.8,1.9
	c0.7,0.5,1.6,0.8,2.6,1c1,0.2,2,0.3,3.2,0.3c1.3,0,2.4-0.1,3.3-0.4c0.9-0.3,1.7-0.7,2.4-1.2c0.6-0.5,1.1-1.1,1.4-1.7
	c0.3-0.7,0.5-1.4,0.5-2.2c0-1.7-0.5-3-1.4-3.9C96,45.2,94.4,44.6,92.2,44.2z"/>
<path d="M116.9,38.2c-0.7-0.8-1.5-1.4-2.6-1.9c-1-0.5-2.3-0.7-3.7-0.7c-1.3,0-2.5,0.2-3.6,0.7c-1.1,0.4-2,1.1-2.8,1.9
	c-0.8,0.8-1.4,1.9-1.8,3.2c-0.4,1.3-0.7,2.7-0.7,4.3c0,3.1,0.8,5.5,2.3,7.2c1.5,1.7,3.7,2.6,6.6,2.6c2.4,0,4.3-0.5,5.6-1.6
	c1.3-1,2.1-2.5,2.4-4.3h-3c-0.3,1-0.8,1.8-1.5,2.4c-0.7,0.6-1.9,0.9-3.4,0.9c-0.9,0-1.7-0.2-2.4-0.5c-0.7-0.3-1.3-0.8-1.8-1.4
	c-0.5-0.6-0.8-1.3-1.1-2.1c-0.3-0.8-0.4-1.7-0.4-2.6h13.9v-1.6c0-1.3-0.2-2.5-0.5-3.7C118,40,117.6,39,116.9,38.2z M105,44
	c0.2-1.9,0.7-3.4,1.6-4.4c0.9-1,2.2-1.5,3.9-1.5c0.9,0,1.7,0.1,2.4,0.4c0.7,0.3,1.2,0.7,1.6,1.2c0.4,0.5,0.7,1.1,0.9,1.9
	c0.2,0.7,0.3,1.5,0.3,2.4H105z"/>
<path d="M128.6,36.7c-0.9,0.6-1.8,1.4-2.5,2.4v-2.9H123v18.7h3.2V43.8c0-0.8,0.2-1.5,0.5-2.1c0.3-0.6,0.7-1.1,1.2-1.6
	c0.5-0.5,1.1-0.8,1.7-1c0.6-0.2,1.2-0.3,1.8-0.3c0.3,0,0.6,0,0.8,0.1c0.2,0,0.5,0.1,0.7,0.1l0.4-2.9c-0.5-0.1-1-0.1-1.7-0.1
	C130.6,35.9,129.5,36.1,128.6,36.7z"/>
<polygon points="144.4,51.4 138.9,36.2 135.2,36.2 142.7,54.9 146.1,54.9 153.6,36.2 150.1,36.2 "/>
<path d="M170.3,38.2c-0.7-0.8-1.5-1.4-2.6-1.9c-1-0.5-2.3-0.7-3.7-0.7c-1.3,0-2.5,0.2-3.6,0.7c-1.1,0.4-2,1.1-2.8,1.9
	c-0.8,0.8-1.4,1.9-1.8,3.2c-0.4,1.3-0.7,2.7-0.7,4.3c0,3.1,0.8,5.5,2.3,7.2c1.5,1.7,3.7,2.6,6.6,2.6c2.4,0,4.3-0.5,5.6-1.6
	c1.3-1,2.1-2.5,2.4-4.3h-3c-0.3,1-0.8,1.8-1.5,2.4c-0.7,0.6-1.9,0.9-3.4,0.9c-0.9,0-1.7-0.2-2.4-0.5c-0.7-0.3-1.3-0.8-1.8-1.4
	c-0.5-0.6-0.8-1.3-1.1-2.1c-0.3-0.8-0.4-1.7-0.4-2.6h13.9v-1.6c0-1.3-0.2-2.5-0.5-3.7C171.5,40,171,39,170.3,38.2z M158.5,44
	c0.2-1.9,0.7-3.4,1.6-4.4c0.9-1,2.2-1.5,3.9-1.5c0.9,0,1.7,0.1,2.4,0.4c0.7,0.3,1.2,0.7,1.6,1.2c0.4,0.5,0.7,1.1,0.9,1.9
	c0.2,0.7,0.3,1.5,0.3,2.4H158.5z"/>
<path d="M185,35.9c-1.1,0-2.1,0.3-3,0.8c-0.9,0.6-1.8,1.4-2.5,2.4v-2.9h-3.1v18.7h3.2V43.8c0-0.8,0.2-1.5,0.5-2.1
	c0.3-0.6,0.7-1.1,1.2-1.6c0.5-0.5,1.1-0.8,1.7-1c0.6-0.2,1.2-0.3,1.8-0.3c0.3,0,0.6,0,0.8,0.1c0.2,0,0.5,0.1,0.7,0.1l0.4-2.9
	C186.3,35.9,185.7,35.9,185,35.9z"/>
<g>
	<path d="M111.6,57.1h0.8v6.6c0,0.5,0,0.9-0.1,1.4c-0.1,0.4-0.3,0.8-0.5,1.2c-0.3,0.3-0.6,0.6-1,0.8c-0.4,0.2-1,0.3-1.7,0.3
		c-0.5,0-1-0.1-1.4-0.2c-0.4-0.1-0.7-0.3-0.9-0.5s-0.4-0.4-0.6-0.7c-0.1-0.2-0.2-0.5-0.2-0.7h0.9c0.1,0.3,0.2,0.5,0.3,0.7
		s0.3,0.3,0.5,0.4c0.2,0.1,0.4,0.2,0.6,0.2c0.2,0,0.5,0.1,0.7,0.1c0.6,0,1-0.1,1.4-0.3s0.6-0.5,0.8-0.8c0.2-0.3,0.3-0.7,0.3-1.1
		c0.1-0.4,0.1-0.8,0.1-1.2c-0.3,0.4-0.6,0.8-1.1,1c-0.5,0.2-1,0.3-1.5,0.3c-0.6,0-1-0.1-1.4-0.3c-0.4-0.2-0.7-0.5-1-0.8
		c-0.3-0.4-0.5-0.8-0.6-1.2c-0.1-0.5-0.2-1-0.2-1.5c0-0.5,0.1-1,0.2-1.5c0.1-0.5,0.3-0.9,0.6-1.2c0.3-0.3,0.6-0.6,1-0.8
		c0.4-0.2,0.9-0.3,1.5-0.3c0.2,0,0.5,0,0.7,0.1c0.2,0.1,0.5,0.2,0.7,0.3c0.2,0.1,0.4,0.3,0.6,0.5s0.3,0.4,0.5,0.6h0V57.1z
		 M111.6,60.8c0-0.4-0.1-0.8-0.2-1.2c-0.1-0.4-0.3-0.7-0.5-1c-0.2-0.3-0.5-0.5-0.8-0.7s-0.7-0.2-1-0.2c-0.4,0-0.7,0.1-1,0.2
		c-0.3,0.1-0.6,0.3-0.8,0.6c-0.2,0.2-0.4,0.5-0.5,0.9s-0.2,0.8-0.2,1.2c0,0.5,0,0.9,0.1,1.3c0.1,0.4,0.2,0.7,0.4,1
		c0.2,0.3,0.5,0.5,0.8,0.7s0.7,0.3,1.1,0.3c0.4,0,0.7-0.1,1-0.2c0.3-0.2,0.6-0.4,0.8-0.7s0.4-0.6,0.5-1
		C111.6,61.6,111.6,61.2,111.6,60.8z"/>
	<path d="M115.5,64.4h-0.8v-7.3h0.8v1.4h0c0.2-0.6,0.5-1,0.9-1.2c0.4-0.2,0.9-0.3,1.5-0.3v0.9c-0.5,0-0.9,0.1-1.2,0.2
		s-0.6,0.4-0.7,0.6s-0.3,0.6-0.4,1c-0.1,0.4-0.1,0.8-0.1,1.2V64.4z"/>
	<path d="M122.1,64.6c-0.5,0-0.9-0.1-1.3-0.3c-0.4-0.2-0.8-0.4-1.1-0.7s-0.5-0.7-0.7-1.2s-0.3-1-0.3-1.7c0-0.5,0.1-1,0.2-1.5
		c0.1-0.5,0.3-0.9,0.6-1.2c0.3-0.3,0.6-0.6,1-0.8s0.9-0.3,1.5-0.3c0.6,0,1.1,0.1,1.5,0.3s0.8,0.5,1,0.8c0.3,0.3,0.5,0.7,0.6,1.2
		s0.2,1,0.2,1.5c0,0.6-0.1,1.1-0.2,1.6c-0.2,0.5-0.4,0.9-0.7,1.2s-0.6,0.6-1.1,0.8C123.1,64.5,122.6,64.6,122.1,64.6z M124.6,60.7
		c0-0.4,0-0.8-0.1-1.2c-0.1-0.4-0.2-0.7-0.4-1c-0.2-0.3-0.4-0.5-0.8-0.7s-0.7-0.2-1.1-0.2c-0.4,0-0.8,0.1-1.1,0.3
		c-0.3,0.2-0.6,0.4-0.8,0.7c-0.2,0.3-0.3,0.6-0.4,1c-0.1,0.4-0.1,0.7-0.1,1.1c0,0.4,0.1,0.9,0.2,1.2c0.1,0.4,0.3,0.7,0.5,1
		c0.2,0.3,0.5,0.5,0.8,0.6c0.3,0.1,0.7,0.2,1.1,0.2c0.4,0,0.8-0.1,1.1-0.3c0.3-0.2,0.6-0.4,0.8-0.7c0.2-0.3,0.3-0.6,0.4-1
		C124.5,61.5,124.6,61.1,124.6,60.7z"/>
	<path d="M131.9,57.1h0.8v7.3h-0.8v-1c-0.1,0.1-0.2,0.3-0.4,0.4s-0.3,0.3-0.5,0.4s-0.4,0.2-0.6,0.3s-0.5,0.1-0.8,0.1
		c-0.5,0-0.9-0.1-1.2-0.2c-0.3-0.1-0.6-0.3-0.8-0.6c-0.2-0.2-0.3-0.5-0.4-0.8c-0.1-0.3-0.1-0.7-0.1-1.1v-4.8h0.8v4.8
		c0,0.6,0.1,1.1,0.4,1.4c0.3,0.3,0.8,0.5,1.4,0.5c0.3,0,0.7-0.1,0.9-0.2c0.3-0.1,0.5-0.3,0.7-0.6c0.2-0.2,0.3-0.5,0.4-0.9
		c0.1-0.3,0.2-0.7,0.2-1.1V57.1z"/>
	<path d="M135.8,67.2h-0.8V57.1h0.8v1.3h0c0.1-0.2,0.3-0.4,0.5-0.6s0.4-0.3,0.6-0.5c0.2-0.1,0.5-0.2,0.7-0.3
		c0.2-0.1,0.5-0.1,0.7-0.1c0.6,0,1.1,0.1,1.5,0.3c0.4,0.2,0.7,0.5,1,0.8c0.3,0.3,0.5,0.7,0.6,1.2c0.1,0.5,0.2,1,0.2,1.5
		c0,0.5-0.1,1-0.2,1.5c-0.1,0.5-0.3,0.9-0.6,1.2s-0.6,0.6-1,0.8c-0.4,0.2-0.9,0.3-1.4,0.3c-0.5,0-1-0.1-1.5-0.3
		c-0.5-0.2-0.8-0.6-1.1-1V67.2z M135.8,60.8c0,0.4,0.1,0.8,0.2,1.2c0.1,0.4,0.3,0.7,0.5,1s0.5,0.5,0.8,0.7c0.3,0.2,0.6,0.2,1,0.2
		c0.4,0,0.8-0.1,1.1-0.3c0.3-0.2,0.6-0.4,0.8-0.7c0.2-0.3,0.4-0.6,0.4-1c0.1-0.4,0.1-0.8,0.1-1.3c0-0.5-0.1-0.9-0.2-1.2
		s-0.3-0.6-0.5-0.9c-0.2-0.2-0.5-0.4-0.8-0.6s-0.6-0.2-1-0.2c-0.4,0-0.7,0.1-1,0.2c-0.3,0.2-0.6,0.4-0.8,0.7c-0.2,0.3-0.4,0.6-0.5,1
		C135.8,59.9,135.8,60.3,135.8,60.8z"/>
</g>
<g>
	<path d="M32.9,7.9c-0.1,0-0.2,0-0.3,0.1c-0.1,0-0.3,0.1-0.4,0.1c-0.3,0-0.6-0.1-0.8-0.2c-0.2-0.2-0.3-0.5-0.3-0.9V2.8h-0.8V2.2h0.8
		V0.6h0.7v1.6h1.1v0.6h-1.1v3.9c0,0.1,0,0.3,0,0.4c0,0.1,0,0.2,0.1,0.3c0,0.1,0.1,0.1,0.2,0.1c0.1,0,0.2,0,0.3,0c0.1,0,0.2,0,0.3,0
		s0.2,0,0.3-0.1V7.9z"/>
	<path d="M34,7.9V0h0.7v3c0.3-0.3,0.5-0.5,0.8-0.7c0.3-0.2,0.6-0.3,1-0.3c0.4,0,0.7,0.1,1,0.2s0.6,0.3,0.8,0.6
		c0.1,0.2,0.2,0.4,0.2,0.6c0,0.2,0,0.4,0,0.7v3.7h-0.7V4.2c0-0.5-0.1-0.9-0.3-1.2c-0.2-0.3-0.6-0.4-1.1-0.4c-0.2,0-0.4,0-0.6,0.1
		c-0.2,0.1-0.3,0.1-0.5,0.2S35.1,3.2,35,3.4c-0.1,0.1-0.2,0.3-0.2,0.4c-0.1,0.2-0.1,0.4-0.1,0.5c0,0.2,0,0.4,0,0.6v3.1H34z"/>
	<path d="M40.5,5.2c0,0.3,0,0.6,0.1,0.9c0.1,0.3,0.2,0.5,0.4,0.7c0.2,0.2,0.4,0.4,0.6,0.5s0.5,0.2,0.8,0.2c0.4,0,0.8-0.1,1.1-0.3
		c0.3-0.2,0.5-0.6,0.6-1h0.7c-0.1,0.3-0.2,0.5-0.3,0.8c-0.1,0.2-0.3,0.4-0.5,0.6c-0.2,0.2-0.4,0.3-0.7,0.4c-0.3,0.1-0.6,0.1-0.9,0.1
		c-0.5,0-0.8-0.1-1.2-0.2c-0.3-0.2-0.6-0.4-0.8-0.6S40.1,6.6,40,6.3c-0.1-0.4-0.2-0.8-0.2-1.2s0.1-0.8,0.2-1.2s0.3-0.7,0.5-1
		c0.2-0.3,0.5-0.5,0.8-0.6c0.3-0.2,0.7-0.2,1.1-0.2c0.8,0,1.4,0.3,1.8,0.8s0.7,1.3,0.7,2.3H40.5z M44.2,4.7c0-0.3,0-0.5-0.1-0.8
		c-0.1-0.2-0.2-0.5-0.3-0.6s-0.3-0.3-0.6-0.4c-0.2-0.1-0.5-0.2-0.8-0.2s-0.6,0.1-0.8,0.2c-0.2,0.1-0.4,0.3-0.6,0.4
		c-0.2,0.2-0.3,0.4-0.4,0.6c-0.1,0.2-0.2,0.5-0.2,0.8H44.2z"/>
</g>
</svg>
